<svg width="59" height="49" viewBox="0 0 59 49" fill="none" xmlns="http://www.w3.org/2000/svg">
<path d="M58.625 24.0833L50.1104 20.8817C49.3846 17.6233 47.57 15.7533 47.57 15.7533C42.9917 11.1067 35.5938 11.1067 31.0154 15.7533L26.8837 19.9467L8.375 0C5.58333 11.3333 8.375 22.6667 15.2146 31.79L0 46.75C0 46.75 24.8179 52.4167 39.2788 40.9417C46.9837 34.8217 48.7146 31.2517 49.8033 27.4833L58.625 24.0833ZM43.8571 24.7067C42.7683 25.8117 40.9817 25.8117 39.8929 24.7067C38.8042 23.6017 38.8042 21.8167 39.8929 20.7117C40.9817 19.6067 42.7683 19.6067 43.8571 20.7117C44.9458 21.8167 44.9458 23.6017 43.8571 24.7067Z" fill="#FF6542"/>
</svg>
