<svg width="60" height="47" viewBox="0 0 60 47" fill="none" xmlns="http://www.w3.org/2000/svg">
<path d="M29.79 10.5L25.8 10.77C23.22 7.71 15.99 0 8.79 0C8.79 0 2.88 8.88 8.67 20.73C7.02 23.22 6 24.51 5.79 27.48L0 28.35L0.63 31.29L5.91 30.51L6.33 32.64L1.62 35.46L3.03 38.13L7.38 35.46C10.83 42.78 19.56 46.5 29.79 46.5C40.02 46.5 48.75 42.78 52.2 35.46L56.55 38.13L57.96 35.46L53.25 32.64L53.67 30.51L58.95 31.29L59.58 28.35L53.79 27.48C53.58 24.51 52.56 23.22 50.91 20.73C56.7 8.88 50.79 0 50.79 0C43.59 0 36.36 7.71 33.78 10.77L29.79 10.5ZM20.79 19.5C21.5856 19.5 22.3487 19.8161 22.9113 20.3787C23.4739 20.9413 23.79 21.7044 23.79 22.5C23.79 23.2956 23.4739 24.0587 22.9113 24.6213C22.3487 25.1839 21.5856 25.5 20.79 25.5C19.9944 25.5 19.2313 25.1839 18.6687 24.6213C18.1061 24.0587 17.79 23.2956 17.79 22.5C17.79 21.7044 18.1061 20.9413 18.6687 20.3787C19.2313 19.8161 19.9944 19.5 20.79 19.5ZM38.79 19.5C39.5856 19.5 40.3487 19.8161 40.9113 20.3787C41.4739 20.9413 41.79 21.7044 41.79 22.5C41.79 23.2956 41.4739 24.0587 40.9113 24.6213C40.3487 25.1839 39.5856 25.5 38.79 25.5C37.9943 25.5 37.2313 25.1839 36.6687 24.6213C36.1061 24.0587 35.79 23.2956 35.79 22.5C35.79 21.7044 36.1061 20.9413 36.6687 20.3787C37.2313 19.8161 37.9943 19.5 38.79 19.5ZM26.79 28.5H32.79L30.69 32.67C31.29 34.59 32.97 36 35.04 36C36.2335 36 37.3781 35.5259 38.222 34.682C39.0659 33.8381 39.54 32.6935 39.54 31.5H41.04C41.04 33.0913 40.4079 34.6174 39.2826 35.7426C38.1574 36.8679 36.6313 37.5 35.04 37.5C32.79 37.5 30.84 36.27 29.79 34.5C28.74 36.27 26.79 37.5 24.54 37.5C22.9487 37.5 21.4226 36.8679 20.2974 35.7426C19.1721 34.6174 18.54 33.0913 18.54 31.5H20.04C20.04 32.6935 20.5141 33.8381 21.358 34.682C22.2019 35.5259 23.3465 36 24.54 36C26.61 36 28.29 34.59 28.89 32.67L26.79 28.5Z" fill="#FF6542"/>
</svg>
