<svg width="63" height="46" viewBox="0 0 63 46" fill="none" xmlns="http://www.w3.org/2000/svg">
<path d="M48.6818 0C43.785 0 40.8068 0.94875 39.0886 1.75375C36.8836 0.66125 34.3636 0 31.5 0C28.6364 0 26.1164 0.66125 23.9114 1.75375C22.1932 0.94875 19.215 0 14.3182 0C5.72727 0 0 23 0 28.75C0 31.1362 3.78 33.3212 8.99182 34.2125C10.8245 40.6525 19.4727 45.5687 30.0682 46V33.695C28.3786 32.6313 25.7727 30.705 25.7727 28.75C25.7727 25.875 31.5 25.875 31.5 25.875C31.5 25.875 37.2273 25.875 37.2273 28.75C37.2273 30.705 34.6214 32.6313 32.9318 33.695V46C43.5273 45.5687 52.1755 40.6525 54.0082 34.2125C59.22 33.3212 63 31.1362 63 28.75C63 23 57.2727 0 48.6818 0ZM9.02045 28.3762C7.58864 28.0312 6.47182 27.6287 5.72727 27.3125C6.44318 19.3487 12.0273 6.9 14.4614 5.75C16.0077 5.75 17.1818 5.9225 18.2414 6.06625C12.2277 12.7075 9.85091 23.115 9.02045 28.3762ZM22.9091 23C22.1496 23 21.4212 22.6971 20.8842 22.1579C20.3472 21.6188 20.0455 20.8875 20.0455 20.125C20.0455 18.5725 21.3341 17.25 22.9091 17.25C23.6686 17.25 24.3969 17.5529 24.934 18.0921C25.471 18.6312 25.7727 19.3625 25.7727 20.125C25.7727 21.735 24.4841 23 22.9091 23ZM40.0909 23C39.3314 23 38.603 22.6971 38.066 22.1579C37.529 21.6188 37.2273 20.8875 37.2273 20.125C37.2273 18.5725 38.5159 17.25 40.0909 17.25C40.8504 17.25 41.5788 17.5529 42.1158 18.0921C42.6528 18.6312 42.9545 19.3625 42.9545 20.125C42.9545 21.735 41.6659 23 40.0909 23ZM53.9795 28.3762C53.1491 23.115 50.7723 12.7075 44.7586 6.06625C45.8182 5.9225 46.9923 5.75 48.5386 5.75C50.9727 6.9 56.5568 19.3487 57.2727 27.3125C56.5568 27.6287 55.44 28.0312 53.9795 28.3762Z" fill="#FF6542"/>
</svg>
