<svg width="23" height="16" viewBox="0 0 23 16" fill="none" xmlns="http://www.w3.org/2000/svg">
<path d="M11.5266 5C10.731 5 9.9679 5.31607 9.40529 5.87868C8.84268 6.44129 8.52661 7.20435 8.52661 8C8.52661 8.79565 8.84268 9.55871 9.40529 10.1213C9.9679 10.6839 10.731 11 11.5266 11C12.3223 11 13.0853 10.6839 13.6479 10.1213C14.2105 9.55871 14.5266 8.79565 14.5266 8C14.5266 7.20435 14.2105 6.44129 13.6479 5.87868C13.0853 5.31607 12.3223 5 11.5266 5ZM11.5266 13C10.2005 13 8.92876 12.4732 7.99108 11.5355C7.0534 10.5979 6.52661 9.32608 6.52661 8C6.52661 6.67392 7.0534 5.40215 7.99108 4.46447C8.92876 3.52678 10.2005 3 11.5266 3C12.8527 3 14.1245 3.52678 15.0621 4.46447C15.9998 5.40215 16.5266 6.67392 16.5266 8C16.5266 9.32608 15.9998 10.5979 15.0621 11.5355C14.1245 12.4732 12.8527 13 11.5266 13ZM11.5266 0.5C6.52661 0.5 2.25661 3.61 0.526611 8C2.25661 12.39 6.52661 15.5 11.5266 15.5C16.5266 15.5 20.7966 12.39 22.5266 8C20.7966 3.61 16.5266 0.5 11.5266 0.5Z" fill="#0D2149"/>
</svg>
