<svg width="79" height="78" viewBox="0 0 79 78" fill="none" xmlns="http://www.w3.org/2000/svg">
<circle cx="39.0266" cy="38.5" r="26.5" fill="#0D2149"/>
<path d="M39.5266 62.4C31.4016 62.4 24.2191 58.24 20.0266 52C20.1241 45.5 33.0266 41.925 39.5266 41.925C46.0266 41.925 58.9291 45.5 59.0266 52C54.8341 58.24 47.6516 62.4 39.5266 62.4ZM39.5266 16.25C42.1125 16.25 44.5924 17.2772 46.4209 19.1057C48.2494 20.9342 49.2766 23.4141 49.2766 26C49.2766 28.5859 48.2494 31.0658 46.4209 32.8943C44.5924 34.7228 42.1125 35.75 39.5266 35.75C36.9408 35.75 34.4608 34.7228 32.6323 32.8943C30.8038 31.0658 29.7766 28.5859 29.7766 26C29.7766 23.4141 30.8038 20.9342 32.6323 19.1057C34.4608 17.2772 36.9408 16.25 39.5266 16.25ZM39.5266 6.5C35.2586 6.5 31.0325 7.34064 27.0894 8.97392C23.1463 10.6072 19.5635 13.0011 16.5456 16.019C10.4507 22.114 7.02661 30.3805 7.02661 39C7.02661 47.6195 10.4507 55.886 16.5456 61.981C19.5635 64.9989 23.1463 67.3928 27.0894 69.0261C31.0325 70.6594 35.2586 71.5 39.5266 71.5C48.1461 71.5 56.4127 68.0759 62.5076 61.981C68.6025 55.886 72.0266 47.6195 72.0266 39C72.0266 21.0275 57.4016 6.5 39.5266 6.5Z" fill="#FF6542"/>
</svg>
