<svg width="251" height="48" viewBox="0 0 251 48" fill="none" xmlns="http://www.w3.org/2000/svg">
<path d="M37.1875 16.4375C37.1875 18.4583 36.8854 20.25 36.2812 21.8125C35.6771 23.375 34.8438 24.7396 33.7812 25.9062C32.7396 27.0729 31.5104 28.0625 30.0938 28.875C28.6771 29.6875 27.1562 30.3542 25.5312 30.875C23.9271 31.375 22.2604 31.75 20.5312 32C18.8021 32.2292 17.1042 32.3542 15.4375 32.375V46.9375H0.875C0.875 42.1667 0.885417 37.4167 0.90625 32.6875C0.927083 27.9583 0.958333 23.1875 1 18.375C1.04167 15.8333 1.05208 13.2917 1.03125 10.75C1.01042 8.20833 1.0625 5.64583 1.1875 3.0625C3.85417 2.27083 6.52083 1.67708 9.1875 1.28125C11.8542 0.885417 14.6042 0.6875 17.4375 0.6875C19.0417 0.6875 20.6458 0.822917 22.25 1.09375C23.8542 1.34375 25.3854 1.75 26.8438 2.3125C28.3229 2.875 29.6875 3.58333 30.9375 4.4375C32.2083 5.27083 33.3021 6.27083 34.2188 7.4375C35.1354 8.60417 35.8542 9.9375 36.375 11.4375C36.9167 12.9167 37.1875 14.5833 37.1875 16.4375ZM23.3125 17.5C23.3125 16.1458 22.8958 15.0938 22.0625 14.3438C21.25 13.5729 20.1875 13.1875 18.875 13.1875C18.4375 13.1875 17.9792 13.2292 17.5 13.3125C17.0417 13.375 16.6042 13.4583 16.1875 13.5625L15.8125 22.6875C16.1042 22.7292 16.3854 22.75 16.6562 22.75C16.9271 22.75 17.2083 22.75 17.5 22.75C18.25 22.75 18.9688 22.625 19.6562 22.375C20.3646 22.125 20.9896 21.7708 21.5312 21.3125C22.0729 20.8333 22.5 20.2812 22.8125 19.6562C23.1458 19.0104 23.3125 18.2917 23.3125 17.5ZM73.7812 21.25C73.7812 23.0625 73.6562 24.875 73.4062 26.6875C69.8438 26.9167 66.3021 27.2917 62.7812 27.8125C59.2604 28.3125 55.7396 28.8125 52.2188 29.3125C52.7604 30.8125 53.6042 32.0104 54.75 32.9062C55.9167 33.8021 57.3021 34.25 58.9062 34.25C59.7396 34.25 60.6458 34.0938 61.625 33.7812C62.625 33.4688 63.6146 33.0833 64.5938 32.625C65.5729 32.1458 66.5104 31.6354 67.4062 31.0938C68.3021 30.5521 69.0729 30.0625 69.7188 29.625L68.2188 43.8125C67.4062 44.4375 66.5208 44.9688 65.5625 45.4062C64.625 45.8438 63.6458 46.1979 62.625 46.4688C61.6042 46.7396 60.5729 46.9375 59.5312 47.0625C58.4896 47.1875 57.4688 47.25 56.4688 47.25C54.4062 47.25 52.5208 46.9688 50.8125 46.4062C49.1042 45.8438 47.5521 45.0625 46.1562 44.0625C44.7812 43.0417 43.5729 41.8438 42.5312 40.4688C41.4896 39.0938 40.625 37.5938 39.9375 35.9688C39.25 34.3438 38.7292 32.625 38.375 30.8125C38.0208 29 37.8438 27.1667 37.8438 25.3125C37.8438 23.375 38.0208 21.4375 38.375 19.5C38.7292 17.5625 39.2604 15.6979 39.9688 13.9062C40.6979 12.1146 41.6042 10.4583 42.6875 8.9375C43.7917 7.39583 45.0729 6.05208 46.5312 4.90625C47.9896 3.76042 49.6354 2.86458 51.4688 2.21875C53.3229 1.57292 55.3646 1.25 57.5938 1.25C59.4479 1.25 61.1354 1.51042 62.6562 2.03125C64.1979 2.53125 65.5625 3.23958 66.75 4.15625C67.9583 5.05208 69 6.125 69.875 7.375C70.7708 8.625 71.5 10 72.0625 11.5C72.6458 12.9792 73.0729 14.5521 73.3438 16.2188C73.6354 17.8646 73.7812 19.5417 73.7812 21.25ZM61.2812 19.625C61.2812 19.0417 61.2188 18.4479 61.0938 17.8438C60.9688 17.2188 60.7604 16.6562 60.4688 16.1562C60.1979 15.6562 59.8333 15.25 59.375 14.9375C58.9167 14.6042 58.3438 14.4375 57.6562 14.4375C56.8229 14.4375 56.0833 14.6667 55.4375 15.125C54.8125 15.5625 54.2708 16.125 53.8125 16.8125C53.3542 17.4792 52.9792 18.2083 52.6875 19C52.3958 19.7917 52.1771 20.5208 52.0312 21.1875L61.2812 20.3125V19.625ZM108.938 2.4375L108.625 15.6875L99.3125 16.0625L98.1875 45.0625L85 45.75L83.8125 16.75L74.5 17.25L74.875 2.5L108.938 2.4375ZM123.5 7.0625C123.479 8.04167 123.26 9.125 122.844 10.3125C122.448 11.5 121.875 12.6771 121.125 13.8438C120.375 14.9896 119.469 16.0833 118.406 17.125C117.365 18.1458 116.188 19 114.875 19.6875C114.875 19.6667 114.865 19.4271 114.844 18.9688C114.823 18.4896 114.792 17.9167 114.75 17.25C114.729 16.5625 114.698 15.8333 114.656 15.0625C114.615 14.2917 114.583 13.6042 114.562 13C113.271 12.5208 112.25 11.7188 111.5 10.5938C110.75 9.46875 110.375 8.22917 110.375 6.875C110.375 5.97917 110.542 5.13542 110.875 4.34375C111.229 3.55208 111.698 2.86458 112.281 2.28125C112.885 1.67708 113.583 1.19792 114.375 0.84375C115.167 0.489583 116.021 0.3125 116.938 0.3125C117.833 0.3125 118.677 0.489583 119.469 0.84375C120.281 1.19792 120.979 1.67708 121.562 2.28125C122.167 2.86458 122.646 3.55208 123 4.34375C123.354 5.13542 123.521 5.97917 123.5 6.875V7.0625ZM157.438 30.5C157.438 33.3542 156.938 35.8229 155.938 37.9062C154.958 39.9688 153.604 41.6771 151.875 43.0312C150.167 44.3646 148.156 45.3542 145.844 46C143.552 46.625 141.083 46.9375 138.438 46.9375C137.417 46.9375 136.292 46.8021 135.062 46.5312C133.854 46.2604 132.625 45.9271 131.375 45.5312C130.125 45.1146 128.917 44.6771 127.75 44.2188C126.604 43.7396 125.583 43.2917 124.688 42.875L126.062 30.625C127.833 31.6875 129.792 32.5 131.938 33.0625C134.104 33.6042 136.229 33.875 138.312 33.875C138.708 33.875 139.188 33.8646 139.75 33.8438C140.312 33.8021 140.844 33.7083 141.344 33.5625C141.865 33.3958 142.302 33.1562 142.656 32.8438C143.01 32.5312 143.188 32.0833 143.188 31.5C143.188 31.1042 143.062 30.7708 142.812 30.5C142.562 30.2083 142.24 29.9792 141.844 29.8125C141.448 29.625 141 29.4896 140.5 29.4062C140 29.3021 139.51 29.2292 139.031 29.1875C138.552 29.1458 138.104 29.125 137.688 29.125C137.271 29.125 136.938 29.125 136.688 29.125C134.896 29.125 133.26 28.8438 131.781 28.2812C130.323 27.7188 129.062 26.9271 128 25.9062C126.958 24.8646 126.146 23.6146 125.562 22.1562C124.979 20.6771 124.688 19.0417 124.688 17.25C124.688 14.7917 125.177 12.5938 126.156 10.6562C127.156 8.69792 128.479 7.04167 130.125 5.6875C131.792 4.3125 133.698 3.26042 135.844 2.53125C137.99 1.80208 140.208 1.4375 142.5 1.4375C143.521 1.4375 144.573 1.47917 145.656 1.5625C146.74 1.625 147.812 1.75 148.875 1.9375C149.958 2.125 151.01 2.36458 152.031 2.65625C153.052 2.94792 154.021 3.3125 154.938 3.75L153.75 16.4375C152.333 15.9583 150.844 15.5625 149.281 15.25C147.74 14.9167 146.229 14.75 144.75 14.75C144.479 14.75 144.125 14.7604 143.688 14.7812C143.271 14.7812 142.823 14.8125 142.344 14.875C141.885 14.9167 141.417 14.9896 140.938 15.0938C140.458 15.1979 140.031 15.3438 139.656 15.5312C139.281 15.6979 138.979 15.9271 138.75 16.2188C138.521 16.5104 138.417 16.8542 138.438 17.25C138.458 17.7083 138.625 18.0625 138.938 18.3125C139.271 18.5625 139.688 18.75 140.188 18.875C140.708 18.9792 141.271 19.0312 141.875 19.0312C142.5 19.0312 143.115 19.0208 143.719 19C144.323 18.9583 144.885 18.9271 145.406 18.9062C145.927 18.8646 146.354 18.8542 146.688 18.875C148.354 18.9792 149.854 19.3333 151.188 19.9375C152.521 20.5417 153.646 21.3438 154.562 22.3438C155.5 23.3438 156.208 24.5417 156.688 25.9375C157.188 27.3125 157.438 28.8333 157.438 30.5ZM209.688 40.125C208.708 41.3542 207.5 42.4271 206.062 43.3438C204.625 44.2604 203.083 45.0208 201.438 45.625C199.792 46.2292 198.104 46.6771 196.375 46.9688C194.646 47.2812 193 47.4375 191.438 47.4375C188.417 47.4375 185.635 46.8958 183.094 45.8125C180.552 44.7292 178.354 43.2396 176.5 41.3438C174.667 39.4271 173.229 37.1771 172.188 34.5938C171.146 32.0104 170.625 29.2292 170.625 26.25C170.625 23.9792 170.885 21.7604 171.406 19.5938C171.927 17.4062 172.667 15.3542 173.625 13.4375C174.604 11.5 175.792 9.72917 177.188 8.125C178.583 6.5 180.167 5.10417 181.938 3.9375C183.708 2.77083 185.646 1.86458 187.75 1.21875C189.854 0.572917 192.104 0.25 194.5 0.25C195.396 0.25 196.354 0.291667 197.375 0.375C198.396 0.4375 199.406 0.5625 200.406 0.75C201.427 0.916667 202.417 1.15625 203.375 1.46875C204.333 1.78125 205.208 2.16667 206 2.625L205.125 14.5625C203.958 14.125 202.75 13.8333 201.5 13.6875C200.271 13.5208 199.062 13.4375 197.875 13.4375C196.208 13.4375 194.646 13.6979 193.188 14.2188C191.75 14.7188 190.49 15.4479 189.406 16.4062C188.344 17.3646 187.5 18.5312 186.875 19.9062C186.25 21.2812 185.938 22.8333 185.938 24.5625C185.938 25.6458 186.083 26.6979 186.375 27.7188C186.667 28.7188 187.104 29.6146 187.688 30.4062C188.292 31.1771 189.031 31.8021 189.906 32.2812C190.802 32.7604 191.833 33 193 33C193.792 33 194.604 32.8958 195.438 32.6875C196.292 32.4792 197.021 32.125 197.625 31.625L197.75 29.1875L190.25 29.0625L190.625 19.6875C193.729 19.5833 196.833 19.5 199.938 19.4375C203.042 19.3542 206.167 19.25 209.312 19.125L209.688 40.125ZM250.719 22.5625C250.719 24.4583 250.5 26.2917 250.062 28.0625C249.625 29.8125 248.99 31.4583 248.156 33C247.344 34.5417 246.344 35.9583 245.156 37.25C243.99 38.5208 242.667 39.6146 241.188 40.5312C239.729 41.4479 238.135 42.1667 236.406 42.6875C234.677 43.1875 232.844 43.4375 230.906 43.4375C229.031 43.4375 227.24 43.1979 225.531 42.7188C223.844 42.2396 222.26 41.5729 220.781 40.7188C219.302 39.8438 217.958 38.8021 216.75 37.5938C215.562 36.3646 214.542 35.0104 213.688 33.5312C212.854 32.0312 212.198 30.4271 211.719 28.7188C211.26 27.0104 211.031 25.2292 211.031 23.375C211.031 21.5625 211.25 19.7917 211.688 18.0625C212.125 16.3125 212.75 14.6667 213.562 13.125C214.396 11.5833 215.396 10.1667 216.562 8.875C217.729 7.58333 219.031 6.46875 220.469 5.53125C221.927 4.59375 223.5 3.86458 225.188 3.34375C226.875 2.82292 228.656 2.5625 230.531 2.5625C233.552 2.5625 236.302 3.03125 238.781 3.96875C241.281 4.90625 243.406 6.25 245.156 8C246.927 9.72917 248.292 11.8333 249.25 14.3125C250.229 16.7708 250.719 19.5208 250.719 22.5625ZM236.844 23.375C236.844 22.4792 236.708 21.6146 236.438 20.7812C236.188 19.9271 235.812 19.1771 235.312 18.5312C234.812 17.8646 234.188 17.3333 233.438 16.9375C232.708 16.5208 231.865 16.3125 230.906 16.3125C229.927 16.3125 229.052 16.4896 228.281 16.8438C227.51 17.1979 226.844 17.6875 226.281 18.3125C225.74 18.9167 225.323 19.6354 225.031 20.4688C224.74 21.2812 224.594 22.1458 224.594 23.0625C224.594 23.9375 224.719 24.8125 224.969 25.6875C225.219 26.5625 225.594 27.3542 226.094 28.0625C226.594 28.7708 227.208 29.3438 227.938 29.7812C228.688 30.2188 229.552 30.4375 230.531 30.4375C231.51 30.4375 232.385 30.25 233.156 29.875C233.948 29.4792 234.615 28.9583 235.156 28.3125C235.698 27.6458 236.115 26.8854 236.406 26.0312C236.698 25.1771 236.844 24.2917 236.844 23.375Z" fill="#FF6542"/>
</svg>
