<svg width="32" height="32" viewBox="0 0 32 32" fill="none" xmlns="http://www.w3.org/2000/svg">
<path d="M22.647 19.9969H21.2704L20.7826 19.5183C22.4901 17.4977 23.5182 14.8745 23.5182 12.0209C23.5182 5.6578 18.4477 0.5 12.1924 0.5C5.93714 0.5 0.866699 5.6578 0.866699 12.0209C0.866699 18.3839 5.93714 23.5417 12.1924 23.5417C14.9977 23.5417 17.5765 22.496 19.5629 20.759L20.0333 21.2553V22.6555L28.7454 31.5L31.3416 28.8591L22.647 19.9969ZM12.1924 19.9969C7.85381 19.9969 4.35154 16.4342 4.35154 12.0209C4.35154 7.60749 7.85381 4.04488 12.1924 4.04488C16.5311 4.04488 20.0333 7.60749 20.0333 12.0209C20.0333 16.4342 16.5311 19.9969 12.1924 19.9969Z" fill="#FF6542"/>
</svg>
